<svg xmlns="http://www.w3.org/2000/svg" xmlns:xlink="http://www.w3.org/1999/xlink" width="180.781" height="46.151" viewBox="0 0 180.781 46.151">
  <defs>
    <clipPath id="clip-path">
      <rect id="Rechteck_1448" data-name="Rechteck 1448" width="63.971" height="12.282"/>
    </clipPath>
  </defs>
  <g id="prismade-logo" transform="translate(0)">
    <g id="Gruppe_139" data-name="Gruppe 139" transform="translate(0 0)">
      <g id="Gruppe_126" data-name="Gruppe 126" transform="translate(42.835 33.863)">
        <g id="Gruppe_124" data-name="Gruppe 124" transform="translate(68.914)">
          <g id="Gruppe_119" data-name="Gruppe 119">
            <g id="Gruppe_118" data-name="Gruppe 118" clip-path="url(#clip-path)">
              <path id="Pfad_2248" data-name="Pfad 2248" d="M306.953,60.446a1.713,1.713,0,0,1,1.25.518,1.774,1.774,0,0,1,0,2.494,1.765,1.765,0,0,1-2.5-2.494,1.722,1.722,0,0,1,1.25-.518M309,62.208a1.95,1.95,0,0,0-.6-1.441,1.975,1.975,0,0,0-1.452-.6,2.047,2.047,0,0,0-2.043,2.038,2.046,2.046,0,1,0,4.092,0m-1.509-.439a.337.337,0,0,1-.231.343,1.061,1.061,0,0,1-.377.051h-.36v-.8h.338a1.049,1.049,0,0,1,.484.084c.1.051.146.158.146.321m-1.362-.687v2.246h.394V62.45h.315a.93.93,0,0,1,.445.073.549.549,0,0,1,.214.512v.174l.011.073a.051.051,0,0,0,.006.028c0,.006.006.011.006.023h.366l-.011-.028a.256.256,0,0,1-.017-.118c-.006-.062-.006-.113-.006-.169v-.163a.614.614,0,0,0-.124-.349.562.562,0,0,0-.388-.22.853.853,0,0,0,.326-.107.492.492,0,0,0,.219-.445.559.559,0,0,0-.349-.569,1.679,1.679,0,0,0-.613-.079l-.794-.006Z" transform="translate(-245.031 -60.164)" fill="#00368e"/>
            </g>
          </g>
          <g id="Gruppe_121" data-name="Gruppe 121" transform="translate(0 0)">
            <g id="Gruppe_120" data-name="Gruppe 120" clip-path="url(#clip-path)">
              <rect id="Rechteck_1449" data-name="Rechteck 1449" width="8.105" height="11.404" transform="translate(0 0.912)" fill="#fff"/>
            </g>
          </g>
          <g id="Gruppe_123" data-name="Gruppe 123">
            <g id="Gruppe_122" data-name="Gruppe 122" clip-path="url(#clip-path)">
              <path id="Pfad_2249" data-name="Pfad 2249" d="M215.09,61.78h46.82a3.005,3.005,0,0,1,3.006,3.006v5.381a3.005,3.005,0,0,1-3.006,3.006H215.09Z" transform="translate(-205.769 -60.868)" fill="#fa0000"/>
            </g>
          </g>
        </g>
        <path id="Pfad_2250" data-name="Pfad 2250" d="M198.53,61.78h8.106v2.038L198.53,66.2Z" transform="translate(-129.616 -60.868)" fill="#fa0000"/>
        <path id="Pfad_2251" data-name="Pfad 2251" d="M206.636,67.67l-8.106,2.409V70.7l8.106-2.4Z" transform="translate(-129.616 -63.443)" fill="#fa0000"/>
        <path id="Pfad_2252" data-name="Pfad 2252" d="M198.53,67.787v.484l8.106-2.375v-.5Z" transform="translate(-129.616 -62.451)" fill="#00368e"/>
        <path id="Pfad_2253" data-name="Pfad 2253" d="M198.53,71.2v5.027h8.106V68.8Z" transform="translate(-129.616 -63.937)" fill="#00368e"/>
        <path id="Pfad_2254" data-name="Pfad 2254" d="M265.18,64.69h2.443v1.4l-2.443.664Z" transform="translate(-158.75 -62.14)" fill="#fff"/>
        <path id="Pfad_2255" data-name="Pfad 2255" d="M267.623,68.08l-2.443.675V73.6h2.443Z" transform="translate(-158.75 -63.622)" fill="#fff"/>
        <path id="Pfad_2256" data-name="Pfad 2256" d="M272.978,68.26a4.581,4.581,0,0,1,2.229-.49,2.485,2.485,0,0,1,2.685,2.15v3.541h-2.645V70.843a1.008,1.008,0,0,0-1.12-1.12,1.04,1.04,0,0,0-1.148,1.013v2.724H270.4V67.894h2.578v.366Z" transform="translate(-161.032 -63.486)" fill="#fff"/>
        <path id="Pfad_2257" data-name="Pfad 2257" d="M289.977,68.27a3.6,3.6,0,0,0-2.2-.49c-1.216,0-3.366.63-3.366,2.691,0,1.722,1.43,2.64,3.208,2.64a3.477,3.477,0,0,0,2.364-.585s.017,1.092-2.2,1.053a3.839,3.839,0,0,1-2.7-.777l-.608,1.368a7.4,7.4,0,0,0,3.816.749c2.685,0,4.087-.709,4.087-2.336V67.909h-2.392v.36Zm-2.8,2.2c0-.546.608-.991,1.356-.991s1.357.445,1.357.991-.608.991-1.357.991-1.356-.445-1.356-.991" transform="translate(-167.156 -63.491)" fill="#fff"/>
        <path id="Pfad_2258" data-name="Pfad 2258" d="M227.451,71.613c-.422,1.61-2.482,1.891-4.087,1.891-2.871,0-4.115-1.368-4.115-3.011,0-1.846,1.492-2.983,4.16-2.983,2.268,0,4.1,1.1,4.1,3.034,0,.236-.017.428-.023.636h-5.314c.068.433.574.715,1.25.715.585,0,1.036.023,1.227-.36ZM224.727,69.8a1.263,1.263,0,0,0-1.283-.72,1.3,1.3,0,0,0-1.272.72Z" transform="translate(-138.674 -63.373)" fill="#fff"/>
        <path id="Pfad_2259" data-name="Pfad 2259" d="M242.857,72.114l-2.493-.006-.017-.355a4.179,4.179,0,0,1-1.739.5c-2.634.169-3.811-1.148-3.828-2.882-.011-1.846,1.514-3.163,3.985-2.949a3.611,3.611,0,0,1,1.565.473V64.69h2.522l.006,7.424Zm-5.285-2.752a1.409,1.409,0,1,0,1.379-1.12,1.271,1.271,0,0,0-1.379,1.12" transform="translate(-145.462 -62.14)" fill="#fff"/>
        <path id="Pfad_2260" data-name="Pfad 2260" d="M258,72.114l-2.494-.006-.017-.355a4.179,4.179,0,0,1-1.739.5c-2.634.169-3.811-1.148-3.828-2.882-.011-1.846,1.514-3.163,3.985-2.949a3.611,3.611,0,0,1,1.565.473V64.69h2.522L258,72.114Zm-5.28-2.752a1.409,1.409,0,1,0,1.379-1.12,1.271,1.271,0,0,0-1.379,1.12" transform="translate(-152.08 -62.14)" fill="#fff"/>
        <g id="Gruppe_125" data-name="Gruppe 125" transform="translate(0 2.377)">
          <path id="Pfad_2261" data-name="Pfad 2261" d="M78.672,66.09l-.315,1.79H81.3L81.036,69.3H78.1l-.507,2.916H76.1l1.328-7.56h4.514l-.259,1.424H78.672Z" transform="translate(-76.1 -64.504)" fill="#00368e"/>
          <path id="Pfad_2262" data-name="Pfad 2262" d="M92,68.5l-.951,5.4h-1.39l.107-.585a2.214,2.214,0,0,1-1.672.732,1.7,1.7,0,0,1-1.717-2.235l.585-3.315h1.39L87.8,71.631c-.129.754.248,1.114.872,1.114a1.388,1.388,0,0,0,1.39-1.165l.54-3.09H92Z" transform="translate(-80.572 -66.179)" fill="#00368e"/>
          <path id="Pfad_2263" data-name="Pfad 2263" d="M99.381,70.91c-.107.6.332.6,1.126.552l-.214,1.261c-1.812.214-2.561-.355-2.3-1.812l.4-2.246h-.94l.236-1.34h.929l.2-1.092,1.469-.422-.27,1.514h1.233L101,68.664h-1.21Z" transform="translate(-85.432 -65.007)" fill="#00368e"/>
          <path id="Pfad_2264" data-name="Pfad 2264" d="M110.438,68.5l-.951,5.4H108.1l.107-.585a2.214,2.214,0,0,1-1.672.732,1.7,1.7,0,0,1-1.717-2.235l.585-3.315h1.39l-.552,3.141c-.129.754.248,1.114.872,1.114a1.388,1.388,0,0,0,1.39-1.165l.54-3.09h1.4Z" transform="translate(-88.632 -66.179)" fill="#00368e"/>
          <path id="Pfad_2265" data-name="Pfad 2265" d="M119.432,68.31l-.27,1.554a1.643,1.643,0,0,0-1.88,1.317l-.462,2.634h-1.39l.951-5.4h1.39l-.152.861A1.968,1.968,0,0,1,119.432,68.31Z" transform="translate(-93.292 -66.1)" fill="#00368e"/>
          <path id="Pfad_2266" data-name="Pfad 2266" d="M127.878,71.084a2.579,2.579,0,0,1-.152.574h-4.081c.062.732.625,1.013,1.295,1.013a1.745,1.745,0,0,0,1.328-.552l.985.788a3.093,3.093,0,0,1-2.42,1.024,2.4,2.4,0,0,1-2.527-2.961,3.262,3.262,0,0,1,3.22-2.741A2.3,2.3,0,0,1,127.878,71.084Zm-1.295-.518a1.03,1.03,0,0,0-1.143-1.081,1.705,1.705,0,0,0-1.6,1.081Z" transform="translate(-96.278 -66.065)" fill="#00368e"/>
          <path id="Pfad_2267" data-name="Pfad 2267" d="M137.881,70.8l-.248,1.424H133.26l.248-1.424,1.081-6.13h1.492L135,70.8Z" transform="translate(-101.086 -64.509)" fill="#00368e"/>
          <path id="Pfad_2268" data-name="Pfad 2268" d="M148.561,68.386l-.951,5.4h-1.39l.084-.5a2.54,2.54,0,0,1-1.79.647c-1.694,0-2.46-1.48-2.178-2.978a3.147,3.147,0,0,1,3.045-2.719,1.812,1.812,0,0,1,1.66.872l.129-.726Zm-1.874,2.786.023-.175a1.187,1.187,0,0,0-1.255-1.435,1.734,1.734,0,0,0-1.728,1.509,1.19,1.19,0,0,0,1.221,1.531A1.769,1.769,0,0,0,146.687,71.173Z" transform="translate(-105.028 -66.069)" fill="#00368e"/>
          <path id="Pfad_2269" data-name="Pfad 2269" d="M160.255,69.608a3.128,3.128,0,0,1-3.023,2.764,1.806,1.806,0,0,1-1.683-.884l-.129.732h-1.39l1.328-7.56h1.39l-.484,2.741a2.48,2.48,0,0,1,1.79-.732A2.333,2.333,0,0,1,160.255,69.608Zm-2.6-1.61a1.786,1.786,0,0,0-1.762,1.52,1.2,1.2,0,0,0,1.244,1.52,1.756,1.756,0,0,0,1.728-1.531A1.174,1.174,0,0,0,157.655,68Z" transform="translate(-110.165 -64.504)" fill="#00368e"/>
          <path id="Pfad_2270" data-name="Pfad 2270" d="M171.187,70.909a3.266,3.266,0,0,1,3.259-2.679,2.409,2.409,0,0,1,2.387,2.989,3.284,3.284,0,0,1-3.186,2.707A2.406,2.406,0,0,1,171.187,70.909Zm4.267.163a1.147,1.147,0,0,0-1.176-1.48,1.744,1.744,0,0,0-1.694,1.492,1.15,1.15,0,0,0,1.165,1.492A1.744,1.744,0,0,0,175.454,71.073Z" transform="translate(-117.64 -66.065)" fill="#00368e"/>
          <path id="Pfad_2271" data-name="Pfad 2271" d="M184.884,66.65l-.011.056h1.143l-.236,1.34h-1.143l-.715,4.058h-1.39l.715-4.058h-.766l.225-1.34h.777l.011-.056a2.517,2.517,0,0,1,2.938-2.257l-.236,1.34C185.491,65.676,185.013,65.913,184.884,66.65Z" transform="translate(-122.601 -64.384)" fill="#00368e"/>
        </g>
      </g>
      <g id="Gruppe_138" data-name="Gruppe 138">
        <g id="Gruppe_133" data-name="Gruppe 133" transform="translate(17.95)">
          <g id="Gruppe_127" data-name="Gruppe 127" transform="translate(0 7.818)">
            <path id="Pfad_2272" data-name="Pfad 2272" d="M40.108,16.068a7.414,7.414,0,0,1,5.105-2.178c6.006,0,9.98,5.522,7.678,11.68a11.242,11.242,0,0,1-11.038,7.256,6.84,6.84,0,0,1-3.923-1.5L36.691,40.07a.71.71,0,0,1-.681.591h-3.6a.506.506,0,0,1-.518-.591L35.5,14.717a.71.71,0,0,1,.681-.591h3.6a.506.506,0,0,1,.518.591Zm3.085,12.04a5.478,5.478,0,0,0,5.471-4.739,3.922,3.922,0,0,0-4.126-4.739,5.731,5.731,0,0,0-5.713,4.739C38.436,26.116,40.406,28.108,43.193,28.108Z" transform="translate(-31.89 -13.89)" fill="#00368e" fill-rule="evenodd"/>
          </g>
          <g id="Gruppe_128" data-name="Gruppe 128" transform="translate(22.729 7.818)">
            <path id="Pfad_2273" data-name="Pfad 2273" d="M85.391,18.067a.706.706,0,0,1-.827.574c-2.319-.484-5.713.889-6.085,3.5l-1.407,9.879a.711.711,0,0,1-.687.591H72.793a.506.506,0,0,1-.518-.591l2.46-17.3a.711.711,0,0,1,.687-.591h3.6a.506.506,0,0,1,.518.591l-.191,1.351A5.93,5.93,0,0,1,84.31,13.89a10.112,10.112,0,0,1,1.137.062.507.507,0,0,1,.45.591Z" transform="translate(-72.27 -13.89)" fill="#00368e" fill-rule="evenodd"/>
          </g>
          <path id="Pfad_2274" data-name="Pfad 2274" d="M102.842,6.472a2.237,2.237,0,0,1-2.268-2.606,3.155,3.155,0,0,1,3.011-2.606,2.237,2.237,0,0,1,2.268,2.606,3.155,3.155,0,0,1-3.011,2.606M100.055,9.2l-2.46,17.3a.506.506,0,0,0,.518.591h3.6a.705.705,0,0,0,.681-.591l2.46-17.3a.506.506,0,0,0-.518-.591h-3.6a.71.71,0,0,0-.681.591" transform="translate(-60.609 -0.551)" fill="#00368e" fill-rule="evenodd"/>
          <g id="Gruppe_129" data-name="Gruppe 129" transform="translate(45.009 7.818)">
            <path id="Pfad_2275" data-name="Pfad 2275" d="M125.681,20.155a.543.543,0,0,1-.715-.214c-.8-1.5-2.7-1.739-3.625-1.739-1.345,0-2.646.377-2.724,1.278-.129.9,1.5,1.233,3.411,1.661,3.3.709,6.805,2.088,6.27,5.831-.411,2.893-3.332,5.876-8.7,5.876a7.976,7.976,0,0,1-7.7-4.779.664.664,0,0,1,.383-.839l3.04-1.323a.554.554,0,0,1,.709.18,4.973,4.973,0,0,0,4.177,2.494c1.863.045,3.163-.332,3.327-1.469.152-1.092-1.587-1.328-3.49-1.751-3.208-.709-6.794-1.8-6.248-5.64.45-3.175,4.041-5.831,8.263-5.831,3.693,0,5.989,1.5,7.014,4.2a.66.66,0,0,1-.405.794Z" transform="translate(-111.853 -13.89)" fill="#00368e" fill-rule="evenodd"/>
          </g>
          <g id="Gruppe_130" data-name="Gruppe 130" transform="translate(63.105 7.818)">
            <path id="Pfad_2276" data-name="Pfad 2276" d="M151.092,16.068a5.74,5.74,0,0,1,4.869-2.178,6.214,6.214,0,0,1,5.561,3.079,8.632,8.632,0,0,1,6.529-3.079c3.6,0,6.952,2.747,6.254,7.627l-1.492,10.5a.711.711,0,0,1-.687.591h-3.6a.506.506,0,0,1-.518-.591l1.413-9.946a3.087,3.087,0,0,0-2.561-3.642,4.224,4.224,0,0,0-4.616,3.473l-1.441,10.115a.711.711,0,0,1-.687.591h-3.6a.506.506,0,0,1-.518-.591l1.413-9.946a3.084,3.084,0,0,0-2.561-3.642,4.215,4.215,0,0,0-4.61,3.473l-1.441,10.115a.711.711,0,0,1-.687.591h-3.6a.506.506,0,0,1-.518-.591l2.46-17.3a.711.711,0,0,1,.687-.591h3.6a.506.506,0,0,1,.518.591Z" transform="translate(-144 -13.89)" fill="#00368e" fill-rule="evenodd"/>
          </g>
          <path id="Pfad_2277" data-name="Pfad 2277" d="M218.161,32.606H214.8a.506.506,0,0,1-.518-.591l.1-.687a8.877,8.877,0,0,1-4.345,1.5c-4.773.321-8.561-2.691-8.972-7.256-.552-6.158,5-11.68,11-11.68a6.991,6.991,0,0,1,4.582,1.52l.1-.687a.711.711,0,0,1,.687-.591h3.36a.506.506,0,0,1,.518.591l-2.46,17.3a.716.716,0,0,1-.687.585m-2.4-9.237a4.243,4.243,0,0,0-4.329-4.976,5.976,5.976,0,0,0-5.747,4.976,4.243,4.243,0,0,0,4.329,4.976,5.967,5.967,0,0,0,5.747-4.976" transform="translate(-105.821 -6.072)" fill="#00368e" fill-rule="evenodd"/>
          <g id="Gruppe_131" data-name="Gruppe 131" transform="translate(116.563)">
            <path id="Pfad_2278" data-name="Pfad 2278" d="M252.419,24.592a7.414,7.414,0,0,1-5.105,2.178c-6.006,0-9.98-5.522-7.678-11.674a11.235,11.235,0,0,1,11.032-7.256,6.873,6.873,0,0,1,3.923,1.492L255.835.591A.711.711,0,0,1,256.522,0h3.6a.506.506,0,0,1,.518.591l-3.608,25.352a.711.711,0,0,1-.687.591h-3.6a.506.506,0,0,1-.518-.591Zm-3.051-12.271a5.976,5.976,0,0,0-5.747,4.976,4.243,4.243,0,0,0,4.329,4.976A5.976,5.976,0,0,0,253.7,17.3,4.244,4.244,0,0,0,249.368,12.321Z" transform="translate(-238.973 0)" fill="#00368e" fill-rule="evenodd"/>
          </g>
          <g id="Gruppe_132" data-name="Gruppe 132" transform="translate(138.117 7.818)">
            <path id="Pfad_2279" data-name="Pfad 2279" d="M294.036,27.872a.554.554,0,0,1,.113.872,10.725,10.725,0,0,1-8.8,4.1c-5.421,0-8.787-3.647-7.953-9.524a10.442,10.442,0,0,1,10.5-9.428c4.846,0,8.618,3.175,7.712,9.524-.039.287-.1.557-.158.827a.719.719,0,0,1-.675.546H281.743c-.31,2.178,1.908,3.788,4.261,3.788a6.115,6.115,0,0,0,4.655-1.869.64.64,0,0,1,.732-.152Zm-2.837-7.16c-.27-1.8-1.615-2.8-3.918-2.8s-4.036,1.041-4.717,2.8Z" transform="translate(-277.266 -13.89)" fill="#00368e" fill-rule="evenodd"/>
          </g>
        </g>
        <g id="Gruppe_137" data-name="Gruppe 137" transform="translate(0 7.818)">
          <g id="Gruppe_134" data-name="Gruppe 134" transform="translate(0 0)">
            <path id="Pfad_2280" data-name="Pfad 2280" d="M7.03,13.89H3.152a.716.716,0,0,0-.687.591l-2.46,17.3a.506.506,0,0,0,.518.591H8.865a.716.716,0,0,0,.687-.591l.985-6.935-3.766.006a1.073,1.073,0,0,1-1.109-1.362Z" transform="translate(0 -13.89)" fill="#00368e" fill-rule="evenodd"/>
          </g>
          <g id="Gruppe_135" data-name="Gruppe 135" transform="translate(6.214)">
            <path id="Pfad_2281" data-name="Pfad 2281" d="M12.425,13.89,11.045,23.7a.484.484,0,0,0,.49.574l3.906.006,1.48-10.391Z" transform="translate(-11.04 -13.89)" fill="#fa0000" fill-rule="evenodd"/>
          </g>
          <g id="Gruppe_136" data-name="Gruppe 136" transform="translate(10.616)">
            <path id="Pfad_2282" data-name="Pfad 2282" d="M23.447,23.684l1.289-9.214a.484.484,0,0,0-.49-.574L20.34,13.89,18.86,24.281h3.991A.641.641,0,0,0,23.447,23.684Z" transform="translate(-18.86 -13.89)" fill="#00368e" fill-rule="evenodd"/>
          </g>
        </g>
      </g>
      <path id="Pfad_2283" data-name="Pfad 2283" d="M313.01.679a2.669,2.669,0,0,1,1.948.8,2.639,2.639,0,0,1,.8,1.936,2.668,2.668,0,0,1-.8,1.953,2.759,2.759,0,0,1-3.9,0,2.681,2.681,0,0,1-.8-1.953,2.635,2.635,0,0,1,.8-1.936,2.644,2.644,0,0,1,1.942-.8m3.2,2.741a3.047,3.047,0,0,0-.934-2.252,3.207,3.207,0,0,0-4.514,0,3.065,3.065,0,0,0-.934,2.252,3.079,3.079,0,0,0,.929,2.263,3.187,3.187,0,0,0,4.52,0,3.1,3.1,0,0,0,.934-2.263m-2.353-.681a.53.53,0,0,1-.366.54,1.71,1.71,0,0,1-.591.079h-.557V2.1h.529a1.663,1.663,0,0,1,.754.129.529.529,0,0,1,.231.507m-2.128-1.075v3.5h.614V3.792h.49a1.524,1.524,0,0,1,.692.113.836.836,0,0,1,.332.794v.276l.017.113c0,.017.006.028.006.039s.006.023.011.034h.574l-.022-.045a.689.689,0,0,1-.028-.18c-.006-.1-.006-.18-.006-.259V4.422a.944.944,0,0,0-.191-.54.868.868,0,0,0-.6-.343,1.268,1.268,0,0,0,.507-.169.758.758,0,0,0,.343-.692.879.879,0,0,0-.546-.889,2.657,2.657,0,0,0-.957-.129h-1.233Z" transform="translate(-135.433 -0.105)" fill="#00368e"/>
    </g>
  </g>
</svg>
